<?xml version="1.0" encoding="UTF-8"?>
<svg version="1.1" xmlns="http://www.w3.org/2000/svg" width="659" height="164">
<path d="M0 0 C10.30980483 -0.02320262 20.6196034 -0.04095544 30.92942905 -0.05181217 C35.71704088 -0.05702368 40.5046348 -0.06408982 45.29223633 -0.07543945 C49.91525892 -0.08632995 54.53826432 -0.09228989 59.16129875 -0.09487724 C60.92227384 -0.09672039 62.68324803 -0.10031958 64.44421577 -0.10573006 C66.91668839 -0.1130223 69.38909057 -0.1139875 71.86157227 -0.11352539 C72.58446442 -0.11712067 73.30735657 -0.12071594 74.05215454 -0.12442017 C78.54008234 -0.11538414 82.48791398 0.35541628 87 1 C87 11.23 87 21.46 87 32 C83.88265396 28.88265396 82.73018879 25.03710717 81 21 C80.67 24.3 80.34 27.6 80 31 C77.63285246 28.63285246 76.75628826 26.4230942 75.375 23.375 C70.59178066 13.72768563 64.11125872 7.79172202 54 4 C52.61449157 3.63103673 51.22479352 3.2775712 49.83203125 2.93701172 C48.56746094 2.62779785 47.30289063 2.31858398 46 2 C46.01665459 2.89202873 46.01665459 2.89202873 46.03364563 3.80207825 C46.14411959 9.98223882 46.21961708 16.1621198 46.2746582 22.34301758 C46.29982875 24.65075062 46.33396797 26.95840374 46.37719727 29.26586914 C46.43773526 32.57979015 46.46618449 35.89265894 46.48828125 39.20703125 C46.51408768 40.2414888 46.5398941 41.27594635 46.56648254 42.3417511 C46.56752326 44.98938297 46.53423468 47.40686963 46 50 C43.53439266 52.22888101 42.3055082 53 39 53 C39 53.99 39 54.98 39 56 C47.30082314 54.54735595 53.53582327 52.67260043 59 46 C60.61747617 43.37160123 61.79648473 40.85834876 63 38 C63.66 38 64.32 38 65 38 C65.495 42.455 65.495 42.455 66 47 C67.32 44.36 68.64 41.72 70 39 C70.66 39 71.32 39 72 39 C72 51.87 72 64.74 72 78 C69.43004926 76.71502463 69.09565537 75.50087627 67.875 72.9375 C67.52179688 72.20402344 67.16859375 71.47054687 66.8046875 70.71484375 C66.53914063 70.14894531 66.27359375 69.58304687 66 69 C65.67 71.64 65.34 74.28 65 77 C63 76 63 76 61.375 72.375 C59.01607131 67.4716089 55.57301388 63.93796981 51 61 C49.35 60.67 47.7 60.34 46 60 C46 76.17 46 92.34 46 109 C43.03 109.99 43.03 109.99 40 111 C47.87587804 113.14796674 54.80431291 110.27732245 61.78515625 106.48828125 C70.80127293 100.6543234 75.07780536 92.75934313 79 83 C79.33 83 79.66 83 80 83 C80.495 95.375 80.495 95.375 81 108 C81.0225828 99.70724791 81.04093355 91.41451968 81.05181217 83.12174511 C81.05703308 79.27117458 81.06411638 75.42062616 81.07543945 71.57006836 C81.08629644 67.85480341 81.09228282 64.13955975 81.09487724 60.42428017 C81.09672641 59.00609311 81.10033731 57.58790724 81.10573006 56.16972923 C81.11297764 54.18502308 81.11340838 52.20029556 81.11352539 50.21557617 C81.115746 49.08528488 81.11796661 47.95499359 81.12025452 46.79045105 C81.12451418 43.91506102 81.12451418 43.91506102 80 41 C77.49552484 39.78130071 77.49552484 39.78130071 75 39 C75 38.67 75 38.34 75 38 C79.184833 37.29556883 83.37314898 36.61449912 87.5625 35.9375 C88.74392578 35.73833984 89.92535156 35.53917969 91.14257812 35.33398438 C97.14265323 34.37598919 102.046078 33.87484939 108 35 C110.59245937 34.70821125 110.59245937 34.70821125 113.0625 34.0625 C123.564985 31.94471496 138.07230587 30.96896827 147.5625 36.9375 C150 39 150 39 152 42 C151.49855469 42.33644531 150.99710938 42.67289063 150.48046875 43.01953125 C148.20749808 46.06015429 148.93411337 49.1011984 149.3125 52.6875 C149.37373047 53.38939453 149.43496094 54.09128906 149.49804688 54.81445312 C149.65102624 56.5442967 149.82362602 58.27238497 150 60 C150.43699219 58.948125 150.43699219 58.948125 150.8828125 57.875 C155.99830466 46.03537035 161.88178202 38.36132195 173.9375 33.125 C181.48317439 30.58977342 188.53202377 32.01434107 196 34 C196.11618764 30.08358289 196.18724654 26.16760899 196.25 22.25 C196.30027344 20.58324219 196.30027344 20.58324219 196.3515625 18.8828125 C196.36445313 17.81289063 196.37734375 16.74296875 196.390625 15.640625 C196.41157227 14.65610352 196.43251953 13.67158203 196.45410156 12.65722656 C195.87420774 9.26391236 194.58963724 8.18511929 192 6 C191.01 5.01 191.01 5.01 190 4 C194.0614603 3.32689407 198.12432096 2.66264518 202.1875 2 C203.91323242 1.71382812 203.91323242 1.71382812 205.67382812 1.421875 C207.34155273 1.15117187 207.34155273 1.15117187 209.04296875 0.875 C210.57473755 0.62363281 210.57473755 0.62363281 212.13745117 0.3671875 C218.97916242 -0.51041879 218.97916242 -0.51041879 222 1 C222.845625 1 223.69125 1 224.5625 1 C225.366875 1 226.17125 1 227 1 C229.76720065 3.76720065 228.36784779 13.22715729 228.4050293 17.12670898 C228.42656555 18.82515856 228.46061702 20.52349846 228.50756836 22.22143555 C228.57475377 24.67286631 228.60205949 27.12199571 228.62109375 29.57421875 C228.64892441 30.32757004 228.67675507 31.08092133 228.70542908 31.85710144 C228.69313649 35.03409999 228.66934536 37.15568028 226.65011597 39.70275879 C225.57545114 40.71893941 224.48137226 41.715055 223.36720276 42.6877594 C221.81373142 43.97803306 221.81373142 43.97803306 221.22363281 46.27001953 C221.21686523 46.96724121 221.21009766 47.66446289 221.203125 48.3828125 C221.19539062 49.15753906 221.18765625 49.93226562 221.1796875 50.73046875 C221.20289063 51.52066406 221.22609375 52.31085938 221.25 53.125 C221.22679687 53.92292969 221.20359375 54.72085938 221.1796875 55.54296875 C221.20296366 57.86670506 221.31456669 59.77774109 222 62 C224.88747323 64.41533795 224.88747323 64.41533795 228 66 C228.75 69 228.75 69 228 72 C227.01 72.5775 226.02 73.155 225 73.75 C221.76615557 75.63305377 221.76615557 75.63305377 221.6015625 78.46875 C221.62291345 81.00239556 221.7403253 83.48019365 222 86 C222.495 85.13375 222.99 84.2675 223.5 83.375 C228.11775567 76.53686007 235.14250421 73.22924016 242.58203125 70.17578125 C244.95994878 69.01947563 246.24052734 67.92924634 248 66 C250.5625 64.25 250.5625 64.25 253 63 C253.66 63.33 254.32 63.66 255 64 C254.67 64.66 254.34 65.32 254 66 C270.64287988 61.54606269 270.64287988 61.54606269 282.96875 51.0703125 C283.66902799 48.9577061 283.66902799 48.9577061 284 46 C286.23661358 49.35492037 286.26164875 50.5076093 286.30297852 54.43359375 C286.31962051 55.54484619 286.33626251 56.65609863 286.35340881 57.80102539 C286.36603004 59.60108032 286.36603004 59.60108032 286.37890625 61.4375 C286.39590073 62.66911865 286.4128952 63.9007373 286.43040466 65.16967773 C286.47459113 68.44328724 286.5108844 71.7168502 286.54260254 74.99060059 C286.58828479 79.60394704 286.64424499 84.21715371 286.70530701 88.83032227 C286.73729028 91.28647707 286.76417213 93.74270449 286.78553772 96.19897461 C286.79902756 97.31022705 286.8125174 98.42147949 286.82641602 99.56640625 C286.83592789 100.54552979 286.84543976 101.52465332 286.85523987 102.53344727 C286.90065638 105.13547362 286.90065638 105.13547362 288 108 C288.99 108 289.98 108 291 108 C290.89249862 99.70716397 290.77986523 91.41442038 290.66066074 83.12174511 C290.60547233 79.27121518 290.55205887 75.42067759 290.50268555 71.57006836 C290.45498176 67.85473844 290.40263679 64.13950036 290.34705925 60.42428017 C290.32666295 59.00611976 290.30794537 57.58793419 290.29092598 56.16972923 C290.26682194 54.18495279 290.2362214 52.20025845 290.20532227 50.21557617 C290.18977798 49.08528488 290.1742337 47.95499359 290.15821838 46.79045105 C290.11747033 43.91571658 290.11747033 43.91571658 289 41 C286.49552484 39.78130071 286.49552484 39.78130071 284 39 C284 38.67 284 38.34 284 38 C288.24797777 37.29959257 292.49861822 36.61691386 296.75 35.9375 C297.9565625 35.73833984 299.163125 35.53917969 300.40625 35.33398438 C302.14648438 35.05844727 302.14648438 35.05844727 303.921875 34.77734375 C304.99018555 34.60452881 306.05849609 34.43171387 307.15917969 34.25366211 C311.94249829 33.82655073 314.33329115 34.98806059 318 38 C317.34 38 316.68 38 316 38 C316.2316422 39.39899699 316.486338 40.79418272 316.75 42.1875 C316.95882812 43.35345703 316.95882812 43.35345703 317.171875 44.54296875 C317.87718789 47.15819207 317.87718789 47.15819207 320.01863098 49.29403687 C322.31998079 52.43699897 322.5073121 53.90915953 322.5300293 57.75244141 C322.54652023 58.88356354 322.56301117 60.01468567 322.58000183 61.18008423 C322.57713921 62.99746597 322.57713921 62.99746597 322.57421875 64.8515625 C322.59546562 66.7280397 322.59546562 66.7280397 322.61714172 68.64242554 C322.65195109 71.95900448 322.67033977 75.27480361 322.67993164 78.5914917 C322.6973472 83.27079837 322.74447346 87.94989532 322.78999329 92.6289978 C322.8125044 95.11854868 322.82830928 97.6081708 322.83683777 100.09780884 C322.84387222 101.22262665 322.85090668 102.34744446 322.8581543 103.50634766 C322.86163376 104.49720367 322.86511322 105.48805969 322.86869812 106.50894165 C322.89626916 109.13189799 322.89626916 109.13189799 324 112 C326.50447516 113.21869929 326.50447516 113.21869929 329 114 C329 114.33 329 114.66 329 115 C328.42307907 114.99777939 327.84615814 114.99555878 327.25175476 114.99327087 C321.19998804 114.97099808 315.14823314 114.95600244 309.09643555 114.94506836 C306.84350104 114.9400665 304.59056974 114.9332629 302.33764648 114.92456055 C299.08316249 114.9123121 295.82872174 114.90673006 292.57421875 114.90234375 C291.58105148 114.89718246 290.58788422 114.89202118 289.56462097 114.88670349 C283.74673608 114.88624583 278.0723241 115.20362163 272.29231262 115.88233948 C270 116 270 116 267 115 C262.50631132 113.85045173 259.4871292 114.29046273 255.04296875 115.5078125 C249.01679744 116.95962433 244.13153819 115.78765336 238.25 114.3125 C229.16017071 112.33724535 221.07161261 113.96726367 212.04589844 115.67041016 C209.67487304 116.05237726 207.39720651 116.13209097 205 116 C205 115.34 205 114.68 205 114 C203.9275 114.165 202.855 114.33 201.75 114.5 C198 115 198 115 194 115 C192.66499335 115.32656719 191.33163678 115.6599524 190 116 C180.05531078 116.84677552 169.80609067 115.56094737 162 109 C156.3662207 103.676337 152.6217012 98.29591848 150 91 C149.1198302 97.87207159 149.1198302 97.87207159 151.41796875 104.1484375 C153.20270625 105.89131548 155.04065902 107.45780904 157 109 C159 111 161 113 163 115 C142.78102346 115.0233693 122.56204965 115.040999 102.3430624 115.05181217 C92.95485927 115.05696655 83.56666454 115.06399293 74.1784668 115.07543945 C65.99489796 115.08541247 57.81133521 115.09185967 49.62776047 115.09408849 C45.29539078 115.09539115 40.96303848 115.09844886 36.63067436 115.10573006 C32.55056943 115.11253156 28.47048902 115.11460855 24.39037895 115.11310768 C22.89525214 115.11338215 21.40012449 115.11536273 19.90500259 115.11920547 C17.85802024 115.1242073 15.81112953 115.12297451 13.7641449 115.12025452 C12.6201998 115.12117631 11.47625471 115.1220981 10.29764462 115.12304783 C6.80717653 114.99280501 3.44696389 114.55165485 0 114 C1.8374444 112.77503707 3.70762973 111.59564016 5.625 110.5 C8.1057227 109.21973738 8.1057227 109.21973738 9 107 C9.09757747 105.66608491 9.13499482 104.32748894 9.14044189 102.99002075 C9.14615204 102.15163666 9.15186218 101.31325256 9.15774536 100.44946289 C9.15886322 99.52786377 9.15998108 98.60626465 9.16113281 97.65673828 C9.16609772 96.68751434 9.17106262 95.71829041 9.17617798 94.71969604 C9.1908211 91.50322773 9.19760501 88.28680872 9.203125 85.0703125 C9.20887446 82.84072874 9.21463221 80.611145 9.22039795 78.38156128 C9.23091391 73.70245126 9.23675276 69.02335846 9.24023438 64.34423828 C9.24572188 58.34274097 9.26975301 52.34147022 9.29820633 46.34004402 C9.31681113 41.73330008 9.32203715 37.12661096 9.32357025 32.51983261 C9.32660193 30.30700313 9.33464771 28.09417473 9.34775543 25.88138199 C9.36477147 22.78809518 9.3629465 19.69536514 9.35644531 16.60205078 C9.37026749 15.22572479 9.37026749 15.22572479 9.3843689 13.82159424 C9.36632275 8.95985142 9.36632275 8.95985142 7.67694092 4.47799683 C5.35538415 2.43185823 2.95743923 1.78865046 0 1 C0 0.67 0 0.34 0 0 Z M113 36 C113 36.66 113 37.32 113 38 C115.97 37.34 118.94 36.68 122 36 C122 35.67 122 35.34 122 35 C118.65747276 34.92572162 116.1964086 34.93453047 113 36 Z M118.875 37 C117.77929688 37.37125 116.68359375 37.7425 115.5546875 38.125 C114.29011719 38.558125 114.29011719 38.558125 113 39 C113.00444122 39.8703035 113.00888245 40.74060699 113.01345825 41.63728333 C113.05350811 49.8332292 113.08397072 58.02914228 113.10362434 66.22516346 C113.11406808 70.43896975 113.12823799 74.65269527 113.15087891 78.86645508 C113.17258633 82.93185407 113.18456419 86.99717532 113.18975449 91.06262779 C113.19345403 92.61479606 113.20067819 94.16696 113.21146011 95.71909523 C113.22594726 97.89070506 113.22797913 100.06199231 113.22705078 102.23364258 C113.231492 103.47052322 113.23593323 104.70740387 113.24050903 105.98176575 C113 109 113 109 111 112 C116.24018658 113.01088029 116.24018658 113.01088029 121.375 112.25 C123.28677108 110.91791442 123.28677108 110.91791442 125 108 C125.28724175 105.57840951 125.28724175 105.57840951 125.22363281 102.84521484 C125.22413635 101.79337006 125.22463989 100.74152527 125.22515869 99.6578064 C125.21788757 98.52033966 125.21061646 97.38287292 125.203125 96.2109375 C125.21367819 93.80077586 125.22543544 91.39061926 125.23828125 88.98046875 C125.24857552 85.18188442 125.25004755 81.3840012 125.22998047 77.58544922 C125.21516099 73.91834409 125.23774148 70.25293424 125.265625 66.5859375 C125.25025696 65.46061615 125.23488892 64.3352948 125.21905518 63.1758728 C125.31687305 55.18793863 127.27625617 49.72374383 133 44 C133.04080783 42.00041636 133.04254356 39.99954746 133 38 C126.9832275 34.86081435 125.24375547 34.83191303 118.875 37 Z M189 35 C188.773125 35.94875 188.54625 36.8975 188.3125 37.875 C187.41885079 41.0602211 186.12450418 43.77520907 184.5625 46.6875 C177.75401722 60.10303116 176.86372853 75.85223887 181 90.26953125 C182.37612287 94.02699175 184.08859848 97.53319724 186.01171875 101.0390625 C187 103 187 103 187 105 C186.505 105.99 186.505 105.99 186 107 C187.45736087 107.19491452 188.91594593 107.38069358 190.375 107.5625 C191.18710938 107.66691406 191.99921875 107.77132812 192.8359375 107.87890625 C195.04899186 108.18237328 195.04899186 108.18237328 197 107 C197 83.57 197 60.14 197 36 C194.29120665 34.64560332 191.99066732 34.93498549 189 35 Z M256.375 67 C255.26125 67.66 254.1475 68.32 253 69 C253.66 69.33 254.32 69.66 255 70 C254.71390693 71.39698636 254.42083095 72.7925433 254.125 74.1875 C253.96257812 74.96480469 253.80015625 75.74210937 253.6328125 76.54296875 C253 79 253 79 251.94921875 81.43359375 C249.81758693 87.19689461 250.01232405 94.46625612 252.4375 100.125 C252.953125 101.07375 253.46875 102.0225 254 103 C254.33 103.66 254.66 104.32 255 105 C253.515 105.495 253.515 105.495 252 106 C255.38569507 108.73870411 255.38569507 108.73870411 262 107 C262 93.14 262 79.28 262 65 C259.53698577 65 258.47936722 65.75296757 256.375 67 Z M221 102 C221.33 103.32 221.66 104.64 222 106 C222.33 105.34 222.66 104.68 223 104 C222.34 103.34 221.68 102.68 221 102 Z M223 106 C223 106.66 223 107.32 223 108 C223.66 107.67 224.32 107.34 225 107 C224.34 106.67 223.68 106.34 223 106 Z M196 108 C193.98079663 109.30406884 191.98075027 110.63823419 190 112 C190 112.33 190 112.66 190 113 C193.465 112.505 193.465 112.505 197 112 C196.67 110.68 196.34 109.36 196 108 Z M261 108 C258.46326712 109.3553326 258.46326712 109.3553326 256 111 C256 111.66 256 112.32 256 113 C257.98 112.67 259.96 112.34 262 112 C261.67 110.68 261.34 109.36 261 108 Z " fill="#232123" transform="translate(12,26)"/>
<path d="M0 0 C2.68462457 1.94060984 5.32593763 3.91843879 7.93359375 5.9609375 C7.27359375 7.6109375 6.61359375 9.2609375 5.93359375 10.9609375 C6.92359375 11.9509375 7.91359375 12.9409375 8.93359375 13.9609375 C9.45566406 13.39246094 9.97773437 12.82398437 10.515625 12.23828125 C19.7448553 2.55647924 32.14375551 -6.44802677 46 -7.20703125 C58.28450885 -7.27565979 68.38916591 -6.82747252 77.8046875 1.64453125 C85.13679489 9.22892621 88.39309798 18.02596167 88.49609375 28.4609375 C88.0696803 52.70750346 70.33072818 71.5264331 54.1328125 87.76953125 C48.33875697 93.2911139 42.21295309 98.13325123 35.74609375 102.8359375 C35.00987793 103.37154297 34.27366211 103.90714844 33.51513672 104.45898438 C18.42409899 115.20027222 18.42409899 115.20027222 10.71875 113.9140625 C4.47475174 111.77726646 -0.79135812 107.83402653 -6.06640625 103.9609375 C-6.9493335 103.31342529 -6.9493335 103.31342529 -7.85009766 102.65283203 C-30.56751671 85.77326866 -57.08621748 62.22469136 -62.06640625 32.9609375 C-63.20500044 22.40434197 -61.1424649 12.72817323 -54.81640625 4.0859375 C-40.91987124 -12.31018839 -17.28058293 -11.49103731 0 0 Z " fill="#212222" transform="translate(566.06640625,27.0390625)"/>
<path d="M0 0 C0.845625 0 1.69125 0 2.5625 0 C3.366875 0 4.17125 0 5 0 C6.54832324 1.54832324 6.12783999 2.99966364 6.13130188 5.1554718 C6.13731415 6.49933456 6.13731415 6.49933456 6.14344788 7.87034607 C6.1426548 9.35632042 6.1426548 9.35632042 6.1418457 10.87231445 C6.14532013 11.90966736 6.14879456 12.94702026 6.15237427 14.01580811 C6.15974681 16.27701082 6.16508417 18.53822085 6.16866493 20.79943275 C6.17580544 24.37539739 6.19145368 27.95122279 6.21000671 31.52714539 C6.26259105 41.6973581 6.31047079 51.86749607 6.32592773 62.0378418 C6.33599134 68.25070759 6.3652769 74.46322604 6.40724754 80.67595482 C6.41958773 83.04783695 6.42467333 85.4197681 6.42244911 87.79168129 C6.42010465 91.10800037 6.44219917 94.42331789 6.4699707 97.73950195 C6.46336929 98.72407883 6.45676788 99.7086557 6.44996643 100.72306824 C6.44244928 106.00500621 6.44244928 106.00500621 8.90812683 110.51628113 C9.59844498 111.00590836 10.28876312 111.49553558 11 112 C11.66 112.66 12.32 113.32 13 114 C7.71639341 114.02482718 2.43282122 114.04292007 -2.85083008 114.05493164 C-4.6460835 114.05994225 -6.44133287 114.06675255 -8.23657227 114.07543945 C-10.82569378 114.0876489 -13.41476107 114.09326116 -16.00390625 114.09765625 C-17.19651817 114.10539818 -17.19651817 114.10539818 -18.41322327 114.11329651 C-23.04898956 114.11375707 -27.4268467 113.76884311 -32 113 C-31.195625 112.38125 -30.39125 111.7625 -29.5625 111.125 C-26.96125481 109.25835959 -26.96125481 109.25835959 -26 107 C-25.88252522 105.58117119 -25.82314572 104.15728586 -25.79467773 102.73388672 C-25.77473251 101.85312469 -25.75478729 100.97236267 -25.73423767 100.06491089 C-25.71752518 99.11278717 -25.70081268 98.16066345 -25.68359375 97.1796875 C-25.6524221 95.71899338 -25.6524221 95.71899338 -25.62062073 94.22879028 C-25.55511402 91.11093353 -25.49623503 87.99299097 -25.4375 84.875 C-25.39431585 82.76431396 -25.3507016 80.65363667 -25.30664062 78.54296875 C-25.19943153 73.3620705 -25.09766722 68.18108644 -25 63 C-26.16853516 63.16298584 -27.33707031 63.32597168 -28.54101562 63.49389648 C-32.49218196 63.98616423 -36.35842118 64.11483439 -40.34375 64.09765625 C-40.99831177 64.0962413 -41.65287354 64.09482635 -42.32727051 64.09336853 C-44.38489674 64.08784307 -46.44240756 64.07530559 -48.5 64.0625 C-49.90885258 64.05747533 -51.31770689 64.05291413 -52.7265625 64.04882812 C-56.15108638 64.0371003 -59.57552047 64.02068691 -63 64 C-61.47951032 75.9611855 -59.57833515 89.67485151 -49.76953125 97.890625 C-48.85558594 98.58671875 -47.94164062 99.2828125 -47 100 C-47.33 100.66 -47.66 101.32 -48 102 C-39.68718801 102.69273433 -34.6063743 100.70478073 -28 95.75 C-27.34 95.1725 -26.68 94.595 -26 94 C-28.15761143 100.66898078 -33.09397267 105.23414488 -38 110 C-36.515 110.99 -36.515 110.99 -35 112 C-47.61120915 116.50783646 -60.51525555 116.11296409 -72.97265625 110.7109375 C-83.5340473 104.75322973 -89.20539873 95.3838038 -93 84 C-93.58392205 89.88247399 -93.98897583 94.48568029 -90.125 99.25 C-89.29548828 100.19359375 -89.29548828 100.19359375 -88.44921875 101.15625 C-87 103 -87 103 -85.9375 106.75 C-84.79795439 110.70042479 -83.23631333 111.61807339 -80 114 C-85.28360659 114.02482718 -90.56717878 114.04292007 -95.85083008 114.05493164 C-97.6460835 114.05994225 -99.44133287 114.06675255 -101.23657227 114.07543945 C-103.82569378 114.0876489 -106.41476107 114.09326116 -109.00390625 114.09765625 C-110.19651817 114.10539818 -110.19651817 114.10539818 -111.41322327 114.11329651 C-116.04898956 114.11375707 -120.4268467 113.76884311 -125 113 C-124.195625 112.38125 -123.39125 111.7625 -122.5625 111.125 C-119.96125481 109.25835959 -119.96125481 109.25835959 -119 107 C-118.90927713 105.2433077 -118.88245856 103.4831499 -118.88647461 101.72412109 C-118.88658791 100.07263565 -118.88658791 100.07263565 -118.88670349 98.38778687 C-118.89186478 97.19505157 -118.89702606 96.00231628 -118.90234375 94.7734375 C-118.9037587 93.55548492 -118.90517365 92.33753235 -118.90663147 91.08267212 C-118.91224361 87.1800901 -118.92479821 83.27756477 -118.9375 79.375 C-118.94251343 76.73437583 -118.94707661 74.09375076 -118.95117188 71.453125 C-118.96221699 64.96873055 -118.97896698 58.48436932 -119 52 C-120.13115234 52.72896484 -120.13115234 52.72896484 -121.28515625 53.47265625 C-124.83557894 55.4700883 -126.97374417 55.49445247 -131 55 C-135.33833918 52.74740081 -138.20287362 50.5926563 -140 46 C-140.23155529 42.65016685 -140.17570423 39.35139547 -140 36 C-141.98 36 -143.96 36 -146 36 C-138.33634117 29.82746031 -130.4248768 29.70449374 -120.90625 30.48046875 C-118 31 -118 31 -116 33 C-116.99 33.495 -116.99 33.495 -118 34 C-114.35470614 35.21509795 -112.39135216 34.67709702 -108.625 34 C-101.55734872 32.89567949 -95.07624415 33.13016268 -88 34 C-87.31640625 35.828125 -87.31640625 35.828125 -87 38 C-88.21484375 39.359375 -88.21484375 39.359375 -89.9375 40.75 C-93.65469377 44.63888863 -93.48729874 48.33098034 -93.375 53.4375 C-93.29494463 55.96492276 -93.16362955 58.47586263 -93 61 C-92.67128906 60.07380859 -92.67128906 60.07380859 -92.3359375 59.12890625 C-88.17882166 48.02636518 -82.67806875 39.71144651 -72.04296875 33.9375 C-61.060102 28.96051463 -49.25422527 30.66083426 -38 34 C-35.14453125 35.40625 -35.14453125 35.40625 -33 37 C-32.27359045 39.31543043 -31.61568542 41.65269935 -31 44 C-30.19185917 45.43958365 -29.33525175 46.85280859 -28.4375 48.23828125 C-27.98246094 48.94637939 -27.52742188 49.65447754 -27.05859375 50.3840332 C-26.70925781 50.91730225 -26.35992187 51.45057129 -26 52 C-25.97530331 45.93107399 -25.95714158 39.86217717 -25.94506836 33.79321289 C-25.94003586 31.72810354 -25.93320931 29.66299776 -25.92456055 27.59790039 C-25.91244764 24.63166422 -25.90676089 21.66547511 -25.90234375 18.69921875 C-25.89718246 17.7741301 -25.89202118 16.84904144 -25.88670349 15.8959198 C-25.88659019 14.60492119 -25.88659019 14.60492119 -25.88647461 13.2878418 C-25.884254 12.53061325 -25.88203339 11.7733847 -25.87974548 10.99320984 C-25.92649769 8.78963753 -25.92649769 8.78963753 -27 6 C-29.50447516 4.78130071 -29.50447516 4.78130071 -32 4 C-32 3.67 -32 3.34 -32 3 C-27.9385397 2.32689407 -23.87567904 1.66264518 -19.8125 1 C-18.08676758 0.71382812 -18.08676758 0.71382812 -16.32617188 0.421875 C-14.65844727 0.15117187 -14.65844727 0.15117187 -12.95703125 -0.125 C-11.42526245 -0.37636719 -11.42526245 -0.37636719 -9.86254883 -0.6328125 C-3.02083758 -1.51041879 -3.02083758 -1.51041879 0 0 Z M-60 32 C-59.34 32.66 -58.68 33.32 -58 34 C-58.26579524 37.63253498 -59.26578723 40.79493486 -60.5 44.1875 C-62.31586891 49.3782277 -62.70390654 54.53758626 -63 60 C-65.31 60 -67.62 60 -70 60 C-70 60.33 -70 60.66 -70 61 C-64.47291389 61.94220126 -59.16241648 62.12116149 -53.5625 62.0625 C-52.32209961 62.05573242 -52.32209961 62.05573242 -51.05664062 62.04882812 C-49.03772854 62.03715811 -47.01885426 62.01922718 -45 62 C-45.41645665 46.55369124 -45.41645665 46.55369124 -52.4375 33.25 C-55.2194624 31.89294517 -56.94501486 31.65085884 -60 32 Z " fill="#222122" transform="translate(476,27)"/>
<path d="M0 0 C10.30980483 -0.02320262 20.6196034 -0.04095544 30.92942905 -0.05181217 C35.71704088 -0.05702368 40.5046348 -0.06408982 45.29223633 -0.07543945 C49.91525892 -0.08632995 54.53826432 -0.09228989 59.16129875 -0.09487724 C60.92227384 -0.09672039 62.68324803 -0.10031958 64.44421577 -0.10573006 C66.91668839 -0.1130223 69.38909057 -0.1139875 71.86157227 -0.11352539 C72.58446442 -0.11712067 73.30735657 -0.12071594 74.05215454 -0.12442017 C78.54008234 -0.11538414 82.48791398 0.35541628 87 1 C87 11.23 87 21.46 87 32 C83.88265396 28.88265396 82.73018879 25.03710717 81 21 C80.67 24.3 80.34 27.6 80 31 C77.63285246 28.63285246 76.75628826 26.4230942 75.375 23.375 C70.59178066 13.72768563 64.11125872 7.79172202 54 4 C52.61449157 3.63103673 51.22479352 3.2775712 49.83203125 2.93701172 C48.56746094 2.62779785 47.30289063 2.31858398 46 2 C46.01665459 2.89202873 46.01665459 2.89202873 46.03364563 3.80207825 C46.14411959 9.98223882 46.21961708 16.1621198 46.2746582 22.34301758 C46.29982875 24.65075062 46.33396797 26.95840374 46.37719727 29.26586914 C46.43773526 32.57979015 46.46618449 35.89265894 46.48828125 39.20703125 C46.51408768 40.2414888 46.5398941 41.27594635 46.56648254 42.3417511 C46.56752326 44.98938297 46.53423468 47.40686963 46 50 C43.53439266 52.22888101 42.3055082 53 39 53 C39 53.99 39 54.98 39 56 C47.30082314 54.54735595 53.53582327 52.67260043 59 46 C60.61747617 43.37160123 61.79648473 40.85834876 63 38 C63.66 38 64.32 38 65 38 C65.495 42.455 65.495 42.455 66 47 C67.32 44.36 68.64 41.72 70 39 C70.66 39 71.32 39 72 39 C72 51.87 72 64.74 72 78 C69.43004926 76.71502463 69.09565537 75.50087627 67.875 72.9375 C67.52179688 72.20402344 67.16859375 71.47054687 66.8046875 70.71484375 C66.53914063 70.14894531 66.27359375 69.58304687 66 69 C65.67 71.64 65.34 74.28 65 77 C63 76 63 76 61.375 72.375 C59.01607131 67.4716089 55.57301388 63.93796981 51 61 C49.35 60.67 47.7 60.34 46 60 C46 76.17 46 92.34 46 109 C43.03 109.99 43.03 109.99 40 111 C47.87587804 113.14796674 54.80431291 110.27732245 61.78515625 106.48828125 C70.80127293 100.6543234 75.07780536 92.75934313 79 83 C79.33 83 79.66 83 80 83 C80.495 95.375 80.495 95.375 81 108 C81.0225828 99.70724791 81.04093355 91.41451968 81.05181217 83.12174511 C81.05703308 79.27117458 81.06411638 75.42062616 81.07543945 71.57006836 C81.08629644 67.85480341 81.09228282 64.13955975 81.09487724 60.42428017 C81.09672641 59.00609311 81.10033731 57.58790724 81.10573006 56.16972923 C81.11297764 54.18502308 81.11340838 52.20029556 81.11352539 50.21557617 C81.115746 49.08528488 81.11796661 47.95499359 81.12025452 46.79045105 C81.12451418 43.91506102 81.12451418 43.91506102 80 41 C77.49552484 39.78130071 77.49552484 39.78130071 75 39 C75 38.67 75 38.34 75 38 C79.22693311 37.29826917 83.4567992 36.61611426 87.6875 35.9375 C88.88568359 35.73833984 90.08386719 35.53917969 91.31835938 35.33398438 C93.05375977 35.05844727 93.05375977 35.05844727 94.82421875 34.77734375 C95.88729248 34.60452881 96.95036621 34.43171387 98.0456543 34.25366211 C100.96312521 34.00316609 103.18045976 34.26833273 106 35 C106 35.66 106 36.32 106 37 C107.485 37.495 107.485 37.495 109 38 C108.01 38 107.02 38 106 38 C106.10748158 47.07513099 106.22011097 56.15017914 106.33933926 65.22516346 C106.39453751 69.43890076 106.44795259 73.65264504 106.49731445 77.86645508 C106.54500366 81.93190764 106.59734816 85.99727589 106.65294075 90.06262779 C106.67334364 91.61476229 106.69206014 93.16691989 106.70907402 94.71909523 C106.73316378 96.89069605 106.76321199 99.06213787 106.79467773 101.23364258 C106.81799416 103.08896355 106.81799416 103.08896355 106.84178162 104.98176575 C106.868297 108.04844364 106.868297 108.04844364 108 111 C110.50447516 112.21869929 110.50447516 112.21869929 113 113 C113 113.33 113 113.66 113 114 C75.71 114 38.42 114 0 114 C1.8374444 112.77503707 3.70762973 111.59564016 5.625 110.5 C8.1057227 109.21973738 8.1057227 109.21973738 9 107 C9.09757747 105.66608491 9.13499482 104.32748894 9.14044189 102.99002075 C9.14615204 102.15163666 9.15186218 101.31325256 9.15774536 100.44946289 C9.15886322 99.52786377 9.15998108 98.60626465 9.16113281 97.65673828 C9.16609772 96.68751434 9.17106262 95.71829041 9.17617798 94.71969604 C9.1908211 91.50322773 9.19760501 88.28680872 9.203125 85.0703125 C9.20887446 82.84072874 9.21463221 80.611145 9.22039795 78.38156128 C9.23091391 73.70245126 9.23675276 69.02335846 9.24023438 64.34423828 C9.24572188 58.34274097 9.26975301 52.34147022 9.29820633 46.34004402 C9.31681113 41.73330008 9.32203715 37.12661096 9.32357025 32.51983261 C9.32660193 30.30700313 9.33464771 28.09417473 9.34775543 25.88138199 C9.36477147 22.78809518 9.3629465 19.69536514 9.35644531 16.60205078 C9.37026749 15.22572479 9.37026749 15.22572479 9.3843689 13.82159424 C9.36632275 8.95985142 9.36632275 8.95985142 7.67694092 4.47799683 C5.35538415 2.43185823 2.95743923 1.78865046 0 1 C0 0.67 0 0.34 0 0 Z " fill="#222122" transform="translate(12,26)"/>
<path d="M0 0 C0 0.33 0 0.66 0 1 C-1.65 1 -3.3 1 -5 1 C-4.896875 1.825 -4.79375 2.65 -4.6875 3.5 C-5.0580261 7.64989233 -6.41409388 9.48143371 -8.69140625 12.85546875 C-15.63841461 24.24026752 -15.72648521 40.74437798 -12.8125 53.4375 C-11.21563654 58.97685889 -8.78551456 63.97004205 -6 69 C-4.86968848 71.26062304 -5 71.53808707 -5 74 C-1.535 73.505 -1.535 73.505 2 73 C1 76 1 76 -0.70703125 77.1328125 C-1.40183594 77.46023437 -2.09664062 77.78765625 -2.8125 78.125 C-3.84310547 78.62386719 -3.84310547 78.62386719 -4.89453125 79.1328125 C-11.58101569 81.88680052 -18.25251897 81.8819194 -25.0625 79.5 C-35.19842936 74.97418968 -39.67708294 66.8248115 -44 57 C-44.8801698 63.87207159 -44.8801698 63.87207159 -42.58203125 70.1484375 C-40.79729375 71.89131548 -38.95934098 73.45780904 -37 75 C-35 77 -33 79 -31 81 C-82.48 81 -133.96 81 -187 81 C-187 80.67 -187 80.34 -187 80 C-152.35 79.67 -117.7 79.34 -82 79 C-82 78.67 -82 78.34 -82 78 C-80.9275 78.020625 -79.855 78.04125 -78.75 78.0625 C-74.75025837 78.06276474 -74.75025837 78.06276474 -71 77 C-69.99462615 73.98387846 -69.88120081 71.99616193 -69.88989258 68.84521484 C-69.88902397 67.26744766 -69.88902397 67.26744766 -69.88813782 65.6578064 C-69.89024765 64.52033966 -69.89235748 63.38287292 -69.89453125 62.2109375 C-69.88107074 59.80077232 -69.86604679 57.39061546 -69.84960938 54.98046875 C-69.82681464 51.18183657 -69.81246997 47.38414051 -69.82495117 43.58544922 C-69.83379525 39.91826337 -69.80479292 36.25293144 -69.76953125 32.5859375 C-69.78176224 31.46061615 -69.79399323 30.3352948 -69.80659485 29.1758728 C-69.68483252 21.19674453 -67.71838136 15.71838136 -62 10 C-61.95919217 8.00041636 -61.95745644 5.99954746 -62 4 C-67.53232104 1.76352979 -70.46627754 2.05462209 -75.984375 4.2734375 C-78 5 -78 5 -81 5 C-80.67 28.43 -80.34 51.86 -80 76 C-81.98 76.99 -81.98 76.99 -84 78 C-86.92303985 75.68938419 -87.92050774 74.53120922 -88.48101807 70.7855835 C-88.4676944 68.88029877 -88.4676944 68.88029877 -88.45410156 66.93652344 C-88.45468567 66.23368225 -88.45526978 65.53084106 -88.45587158 64.80670166 C-88.45309139 62.49041848 -88.42200512 60.17543251 -88.390625 57.859375 C-88.38316232 56.2508413 -88.37746951 54.64229849 -88.37347412 53.03375244 C-88.35821977 48.80520415 -88.31894018 44.57720762 -88.2746582 40.34887695 C-88.2337009 36.03213973 -88.21546216 31.71531313 -88.1953125 27.3984375 C-88.15244528 18.93203879 -88.08419694 10.46608808 -88 2 C-85.91629571 1.50432714 -83.83163743 1.01266342 -81.74658203 0.52270508 C-80.58579132 0.24848221 -79.42500061 -0.02574066 -78.22903442 -0.30827332 C-68.640788 -2.36227616 -55.0493135 -2.47860439 -46.4375 2.9375 C-44 5 -44 5 -42 8 C-42.50144531 8.33644531 -43.00289062 8.67289063 -43.51953125 9.01953125 C-45.79250192 12.06015429 -45.06588663 15.1011984 -44.6875 18.6875 C-44.62626953 19.38939453 -44.56503906 20.09128906 -44.50195312 20.81445312 C-44.34897376 22.5442967 -44.17637398 24.27238497 -44 26 C-43.56300781 24.948125 -43.56300781 24.948125 -43.1171875 23.875 C-38.00169534 12.03537035 -32.11821798 4.36132195 -20.0625 -0.875 C-13.39443304 -3.12430802 -6.45662253 -2.71857791 0 0 Z M-81 2 C-81 2.66 -81 3.32 -81 4 C-78.03 3.34 -75.06 2.68 -72 2 C-72 1.67 -72 1.34 -72 1 C-75.34252724 0.92572162 -77.8035914 0.93453047 -81 2 Z " fill="#232123" transform="translate(206,60)"/>
<path d="M0 0 C0.845625 0 1.69125 0 2.5625 0 C3.366875 0 4.17125 0 5 0 C6.54832324 1.54832324 6.12783999 2.99966364 6.13130188 5.1554718 C6.13531006 6.05138031 6.13931824 6.94728882 6.14344788 7.87034607 C6.14291916 8.86099564 6.14239044 9.8516452 6.1418457 10.87231445 C6.14532013 11.90966736 6.14879456 12.94702026 6.15237427 14.01580811 C6.15974681 16.27701082 6.16508417 18.53822085 6.16866493 20.79943275 C6.17580544 24.37539739 6.19145368 27.95122279 6.21000671 31.52714539 C6.26259105 41.6973581 6.31047079 51.86749607 6.32592773 62.0378418 C6.33599134 68.25070759 6.3652769 74.46322604 6.40724754 80.67595482 C6.41958773 83.04783695 6.42467333 85.4197681 6.42244911 87.79168129 C6.42010465 91.10800037 6.44219917 94.42331789 6.4699707 97.73950195 C6.46336929 98.72407883 6.45676788 99.7086557 6.44996643 100.72306824 C6.44244928 106.00500621 6.44244928 106.00500621 8.90812683 110.51628113 C9.59844498 111.00590836 10.28876312 111.49553558 11 112 C11.66 112.66 12.32 113.32 13 114 C7.71639341 114.02482718 2.43282122 114.04292007 -2.85083008 114.05493164 C-4.6460835 114.05994225 -6.44133287 114.06675255 -8.23657227 114.07543945 C-10.82569378 114.0876489 -13.41476107 114.09326116 -16.00390625 114.09765625 C-17.19651817 114.10539818 -17.19651817 114.10539818 -18.41322327 114.11329651 C-23.04898956 114.11375707 -27.4268467 113.76884311 -32 113 C-31.195625 112.38125 -30.39125 111.7625 -29.5625 111.125 C-26.96125481 109.25835959 -26.96125481 109.25835959 -26 107 C-25.88252522 105.58117119 -25.82314572 104.15728586 -25.79467773 102.73388672 C-25.77473251 101.85312469 -25.75478729 100.97236267 -25.73423767 100.06491089 C-25.70916893 98.63672531 -25.70916893 98.63672531 -25.68359375 97.1796875 C-25.66281265 96.20589142 -25.64203156 95.23209534 -25.62062073 94.22879028 C-25.55511402 91.11093353 -25.49623503 87.99299097 -25.4375 84.875 C-25.39431585 82.76431396 -25.3507016 80.65363667 -25.30664062 78.54296875 C-25.19862023 73.36206593 -25.09955507 68.18110016 -25 63 C-32.26 63 -39.52 63 -47 63 C-46.01 62.505 -46.01 62.505 -45 62 C-46.49028083 47.84784335 -46.49028083 47.84784335 -52 35 C-55.6441774 32.5705484 -57.71241272 32.83820425 -62 33 C-61.67 32.34 -61.34 31.68 -61 31 C-51.72760971 30.52039361 -40.66562454 31.29274669 -33 37 C-32.27359045 39.31543043 -31.61568542 41.65269935 -31 44 C-30.19185917 45.43958365 -29.33525175 46.85280859 -28.4375 48.23828125 C-27.98246094 48.94637939 -27.52742188 49.65447754 -27.05859375 50.3840332 C-26.70925781 50.91730225 -26.35992187 51.45057129 -26 52 C-25.97530331 45.93107399 -25.95714158 39.86217717 -25.94506836 33.79321289 C-25.94003586 31.72810354 -25.93320931 29.66299776 -25.92456055 27.59790039 C-25.91244764 24.63166422 -25.90676089 21.66547511 -25.90234375 18.69921875 C-25.89718246 17.7741301 -25.89202118 16.84904144 -25.88670349 15.8959198 C-25.88662796 15.03525406 -25.88655243 14.17458832 -25.88647461 13.2878418 C-25.884254 12.53061325 -25.88203339 11.7733847 -25.87974548 10.99320984 C-25.92649769 8.78963753 -25.92649769 8.78963753 -27 6 C-29.50447516 4.78130071 -29.50447516 4.78130071 -32 4 C-32 3.67 -32 3.34 -32 3 C-27.9385397 2.32689407 -23.87567904 1.66264518 -19.8125 1 C-18.66201172 0.80921875 -17.51152344 0.6184375 -16.32617188 0.421875 C-14.65844727 0.15117187 -14.65844727 0.15117187 -12.95703125 -0.125 C-11.42526245 -0.37636719 -11.42526245 -0.37636719 -9.86254883 -0.6328125 C-3.02083758 -1.51041879 -3.02083758 -1.51041879 0 0 Z " fill="#222222" transform="translate(476,27)"/>
<path d="M0 0 C0 0.66 0 1.32 0 2 C0.99 2.33 1.98 2.66 3 3 C2.01 3 1.02 3 0 3 C0.10748158 12.07513099 0.22011097 21.15017914 0.33933926 30.22516346 C0.39453751 34.43890076 0.44795259 38.65264504 0.49731445 42.86645508 C0.54500366 46.93190764 0.59734816 50.99727589 0.65294075 55.06262779 C0.67334364 56.61476229 0.69206014 58.16691989 0.70907402 59.71909523 C0.73316378 61.89069605 0.76321199 64.06213787 0.79467773 66.23364258 C0.81799416 68.08896355 0.81799416 68.08896355 0.84178162 69.98176575 C0.868297 73.04844364 0.868297 73.04844364 2 76 C4.50447516 77.21869929 4.50447516 77.21869929 7 78 C7 78.33 7 78.66 7 79 C-14.78 79 -36.56 79 -59 79 C-57.47242978 75.94485955 -55.10870658 75.84226403 -51.9375 74.75 C-40.93779098 70.61006575 -34.8974968 64.98865803 -29.7421875 54.421875 C-28.78601362 52.29555827 -27.86931338 50.16305624 -27 48 C-26.67 48 -26.34 48 -26 48 C-25.505 60.375 -25.505 60.375 -25 73 C-24.9774172 64.70724791 -24.95906645 56.41451968 -24.94818783 48.12174511 C-24.94296692 44.27117458 -24.93588362 40.42062616 -24.92456055 36.57006836 C-24.91370356 32.85480341 -24.90771718 29.13955975 -24.90512276 25.42428017 C-24.90327359 24.00609311 -24.89966269 22.58790724 -24.89426994 21.16972923 C-24.88702236 19.18502308 -24.88659162 17.20029556 -24.88647461 15.21557617 C-24.884254 14.08528488 -24.88203339 12.95499359 -24.87974548 11.79045105 C-24.87548582 8.91506102 -24.87548582 8.91506102 -26 6 C-28.50447516 4.78130071 -28.50447516 4.78130071 -31 4 C-31 3.67 -31 3.34 -31 3 C-26.77306689 2.29826917 -22.5432008 1.61611426 -18.3125 0.9375 C-16.51522461 0.63875977 -16.51522461 0.63875977 -14.68164062 0.33398438 C-13.52470703 0.15029297 -12.36777344 -0.03339844 -11.17578125 -0.22265625 C-10.11270752 -0.39547119 -9.04963379 -0.56828613 -7.9543457 -0.74633789 C-5.03687479 -0.99683391 -2.81954024 -0.73166727 0 0 Z " fill="#222222" transform="translate(118,61)"/>
<path d="M0 0 C8.46360274 0.45340729 13.82588539 3.47251079 19.6875 9.5625 C27.39451198 19.07252855 29.22044552 29.11372549 28.24365234 41.00488281 C25.32222902 64.92659762 2.89292037 87.42706458 -15 102 C-18.02316586 104.34697683 -21.09224737 106.62413892 -24.1875 108.875 C-24.92371582 109.41060547 -25.65993164 109.94621094 -26.41845703 110.49804688 C-36.83441371 117.91177089 -36.83441371 117.91177089 -42 120 C-45.5625 119.3125 -45.5625 119.3125 -48 118 C-44.79225719 115.34788407 -41.57220858 113.066667 -38 110.9375 C-31.63743262 106.94479577 -26.07812806 102.20840752 -20.44677734 97.26757812 C-19.18727528 96.16407919 -17.91682345 95.07310265 -16.64453125 93.984375 C-14.73879475 92.34772702 -12.86154799 90.68663744 -11 89 C-10.18208984 88.26330078 -10.18208984 88.26330078 -9.34765625 87.51171875 C4.56695045 74.31739758 18.53565917 55.36882184 19.51928711 35.71386719 C19.74057056 24.37715333 16.78613653 14.99966052 8.84765625 6.625 C6.09760991 4.20635459 3.284951 2.60895559 0 1 C0 0.67 0 0.34 0 0 Z " fill="#FE00FE" transform="translate(626,21)"/>
<path d="M0 0 C0.70454819 -0.00095673 1.40909637 -0.00191345 2.13499451 -0.00289917 C3.61140025 -0.00357413 5.08780909 -0.00176809 6.56420898 0.00244141 C8.80654638 0.0078076 11.04868426 0.00246889 13.29101562 -0.00390625 C14.73567752 -0.0032455 16.18033929 -0.00196441 17.625 0 C19.56741577 0.00169189 19.56741577 0.00169189 21.54907227 0.00341797 C25.24609375 0.1328125 25.24609375 0.1328125 32.24609375 1.1328125 C32.24609375 11.3628125 32.24609375 21.5928125 32.24609375 32.1328125 C29.12874771 29.01546646 27.97628254 25.16991967 26.24609375 21.1328125 C25.91609375 24.4328125 25.58609375 27.7328125 25.24609375 31.1328125 C22.87894621 28.76566496 22.00238201 26.5559067 20.62109375 23.5078125 C15.83787441 13.86049813 9.35735247 7.92453452 -0.75390625 4.1328125 C-2.13941468 3.76384923 -3.52911273 3.4103837 -4.921875 3.06982422 C-6.18644531 2.76061035 -7.45101562 2.45139648 -8.75390625 2.1328125 C-8.74280319 2.72749832 -8.73170013 3.32218414 -8.72026062 3.93489075 C-8.60978666 10.11505132 -8.53428917 16.2949323 -8.47924805 22.47583008 C-8.4540775 24.78356312 -8.41993828 27.09121624 -8.37670898 29.39868164 C-8.31617099 32.71260265 -8.28772176 36.02547144 -8.265625 39.33984375 C-8.23981857 40.3743013 -8.21401215 41.40875885 -8.18742371 42.4745636 C-8.18638299 45.12219547 -8.21967157 47.53968213 -8.75390625 50.1328125 C-11.21951359 52.36169351 -12.44839805 53.1328125 -15.75390625 53.1328125 C-15.75390625 35.9728125 -15.75390625 18.8128125 -15.75390625 1.1328125 C-10.28228779 0.44886019 -5.4423075 0.00473627 0 0 Z " fill="#222222" transform="translate(66.75390625,25.8671875)"/>
<path d="M0 0 C2.5 0.125 2.5 0.125 3.5 1.125 C3.59884529 2.50731901 3.62907642 3.89462503 3.63130188 5.2804718 C3.63531006 6.17638031 3.63931824 7.07228882 3.64344788 7.99534607 C3.64291916 8.98599564 3.64239044 9.9766452 3.6418457 10.99731445 C3.64705734 12.55334381 3.64705734 12.55334381 3.65237427 14.14080811 C3.65974681 16.40201082 3.66508417 18.66322085 3.66866493 20.92443275 C3.67580544 24.50039739 3.69145368 28.07622279 3.71000671 31.65214539 C3.76259105 41.8223581 3.81047079 51.99249607 3.82592773 62.1628418 C3.83599134 68.37570759 3.8652769 74.58822604 3.90724754 80.80095482 C3.91958773 83.17283695 3.92467333 85.5447681 3.92244911 87.91668129 C3.92010465 91.23300037 3.94219917 94.54831789 3.9699707 97.86450195 C3.96336929 98.84907883 3.95676788 99.8336557 3.94996643 100.84806824 C3.94244928 106.13000621 3.94244928 106.13000621 6.40812683 110.64128113 C7.09844498 111.13090836 7.78876312 111.62053558 8.5 112.125 C9.49 113.115 9.49 113.115 10.5 114.125 C-2.04 114.125 -14.58 114.125 -27.5 114.125 C-27.5 113.795 -27.5 113.465 -27.5 113.125 C-17.93 112.795 -8.36 112.465 1.5 112.125 C-0.15 110.475 -1.8 108.825 -3.5 107.125 C-4.11803246 104.85711288 -4.11803246 104.85711288 -4.10800171 102.50628662 C-4.11632019 101.60895813 -4.12463867 100.71162964 -4.13320923 99.78710938 C-4.11680389 98.81547852 -4.10039856 97.84384766 -4.08349609 96.84277344 C-4.08583252 95.80977112 -4.08816895 94.7767688 -4.09057617 93.71246338 C-4.09218944 90.30258436 -4.0581755 86.89406182 -4.0234375 83.484375 C-4.01664904 81.11737557 -4.01192627 78.75036939 -4.00918579 76.38336182 C-3.99851017 71.42692417 -3.97181133 66.47093774 -3.93212891 61.51464844 C-3.88115066 55.14644567 -3.85610203 48.77850185 -3.84119225 42.41012192 C-3.82643743 36.35150336 -3.80118769 30.29294635 -3.7734375 24.234375 C-3.76852673 23.07089287 -3.76361595 21.90741074 -3.75855637 20.70867157 C-3.74235906 17.43559472 -3.71895803 14.16265961 -3.69287109 10.88964844 C-3.68861115 9.90992065 -3.6843512 8.93019287 -3.67996216 7.92077637 C-3.67136169 7.03472717 -3.66276123 6.14867798 -3.65390015 5.23577881 C-3.6455417 4.07438196 -3.6455417 4.07438196 -3.63701439 2.88952255 C-3.41621128 0.04593756 -2.85474331 0.14273717 0 0 Z " fill="#FE00FE" transform="translate(478.5,26.875)"/>
<path d="M0 0 C-0.99 0.99 -1.98 1.98 -3 3 C-2.0925 2.484375 -1.185 1.96875 -0.25 1.4375 C3 0 3 0 5.375 0.3125 C5.91125 0.539375 6.4475 0.76625 7 1 C6.01 1.66 5.02 2.32 4 3 C4.370031 8.11577498 4.370031 8.11577498 7 12.375 C9.75398207 15.98960147 10.04406845 19.51383218 10 24 C8.54325818 26.91348365 6.66154497 26.97984841 3.625 28 C0.3328428 29.11186312 -2.08879663 30.05919775 -5 32 C-8.97435037 32.80103186 -12.55942691 32.84566976 -16.109375 30.76171875 C-19.08681783 28.28256697 -20.75582245 26.73253266 -22 23 C-22.46547323 16.83247972 -21.48267797 13.00811247 -17.5234375 8.2109375 C-12.94544188 3.29847645 -7.05441815 -2.37754226 0 0 Z " fill="#222122" transform="translate(259,62)"/>
<path d="M0 0 C3.29228927 2.27927719 4.938942 3.79442469 5.9765625 7.734375 C6.6987578 11.95426126 6.7078858 14.12592949 4.8125 18.0625 C1.48030573 21.74545156 -0.87849639 23.5978424 -5.9375 23.8671875 C-7.13375 23.76664063 -8.33 23.66609375 -9.5625 23.5625 C-10.75875 23.47742188 -11.955 23.39234375 -13.1875 23.3046875 C-18.0435862 22.41665322 -20.65360579 20.69206729 -23.9375 17.0625 C-26.09023688 12.59143109 -25.92079684 9.40671083 -24.5625 4.6875 C-19.13621223 -4.42091161 -8.91565862 -3.28471633 0 0 Z " fill="#222222" transform="translate(383.5625,28.3125)"/>
<path d="M0 0 C0.33 0.66 0.66 1.32 1 2 C1.99 2.33 2.98 2.66 4 3 C3.01 3 2.02 3 1 3 C1.33 26.43 1.66 49.86 2 74 C0.02 74.99 0.02 74.99 -2 76 C-4.87440965 73.71109682 -5.9152203 72.55316036 -6.48101807 68.86151123 C-6.47213562 67.6268512 -6.46325317 66.39219116 -6.45410156 65.12011719 C-6.45468567 64.43678314 -6.45526978 63.7534491 -6.45587158 63.04940796 C-6.453092 60.79804101 -6.42200908 58.54800968 -6.390625 56.296875 C-6.38316209 54.733182 -6.37746939 53.16947963 -6.37347412 51.60577393 C-6.35822154 47.49558567 -6.3189436 43.38596529 -6.2746582 39.27600098 C-6.23369701 35.07991213 -6.21546133 30.88373127 -6.1953125 26.6875 C-6.15244842 18.4580731 -6.08420233 10.22910725 -6 2 C-4.02 1.34 -2.04 0.68 0 0 Z " fill="#FF00FF" transform="translate(124,62)"/>
<path d="M0 0 C0.33 0 0.66 0 1 0 C1.390625 1.92057292 1.78125 3.84114583 2.171875 5.76171875 C2.9124799 8.17821054 2.9124799 8.17821054 5.01863098 10.28036499 C7.31472884 13.43199805 7.50729105 14.90559789 7.5300293 18.75244141 C7.54652023 19.88356354 7.56301117 21.01468567 7.58000183 22.18008423 C7.57809341 23.39167206 7.576185 24.60325989 7.57421875 25.8515625 C7.58838333 27.1025473 7.60254791 28.3535321 7.61714172 29.64242554 C7.65195109 32.95900448 7.67033977 36.27480361 7.67993164 39.5914917 C7.6973472 44.27079837 7.74447346 48.94989532 7.78999329 53.6289978 C7.8125044 56.11854868 7.82830928 58.6081708 7.83683777 61.09780884 C7.84387222 62.22262665 7.85090668 63.34744446 7.8581543 64.50634766 C7.86163376 65.49720367 7.86511322 66.48805969 7.86869812 67.50894165 C7.89626916 70.13189799 7.89626916 70.13189799 9 73 C11.50447516 74.21869929 11.50447516 74.21869929 14 75 C14 75.33 14 75.66 14 76 C1.46 76 -11.08 76 -24 76 C-24 75.67 -24 75.34 -24 75 C-9.15 74.505 -9.15 74.505 6 74 C4.68 73.34 3.36 72.68 2 72 C-0.42920859 68.35618712 -0.24285565 66.66387555 -0.22705078 62.32543945 C-0.22734283 61.652005 -0.22763489 60.97857056 -0.22793579 60.284729 C-0.22654344 58.06078161 -0.21098703 55.83717005 -0.1953125 53.61328125 C-0.19158203 52.07057376 -0.18873522 50.5278639 -0.18673706 48.9851532 C-0.17910329 44.92611136 -0.15945706 40.8672128 -0.1373291 36.80822754 C-0.11686512 32.6657912 -0.10773416 28.5233317 -0.09765625 24.38085938 C-0.07621088 16.25384052 -0.04207808 8.12693809 0 0 Z " fill="#FE00FE" transform="translate(327,65)"/>
<path d="M0 0 C0.65654905 5.25239238 -0.88011737 7.69030138 -3.69140625 11.85546875 C-10.63841461 23.24026752 -10.72648521 39.74437798 -7.8125 52.4375 C-6.21563654 57.97685889 -3.78551456 62.97004205 -1 68 C-0.505 68.99 -0.505 68.99 0 70 C-2.475 70.495 -2.475 70.495 -5 71 C-14.27967742 61.72032258 -17.19929134 49.70718883 -17.25 36.875 C-17.24396105 25.66549875 -15.40636918 12.84818774 -7.4140625 4.3046875 C-2.37142857 0 -2.37142857 0 0 0 Z " fill="#FF00FF" transform="translate(201,61)"/>
<path d="M0 0 C1.65 0 3.3 0 5 0 C7 2 7 2 7.24050903 4.10073853 C7.23606781 4.96677704 7.23162659 5.83281555 7.22705078 6.72509766 C7.22689972 7.70596344 7.22674866 8.68682922 7.22659302 9.69741821 C7.21627045 10.75891083 7.20594788 11.82040344 7.1953125 12.9140625 C7.1924826 13.99883881 7.18965271 15.08361511 7.18673706 16.20126343 C7.17551578 19.67595313 7.15040762 23.15038782 7.125 26.625 C7.11497272 28.97655879 7.10584643 31.3281216 7.09765625 33.6796875 C7.07557011 39.45321244 7.04207345 45.22658801 7 51 C4.69 51.66 2.38 52.32 0 53 C0 35.51 0 18.02 0 0 Z " fill="#FF00FF" transform="translate(51,84)"/>
<path d="M0 0 C2.64 0 5.28 0 8 0 C7.98375081 6.92393423 7.92905794 13.84679362 7.84741211 20.77026367 C7.82419101 23.12631257 7.80982681 25.48246587 7.80444336 27.83862305 C7.79518415 31.22250753 7.75425793 34.60474036 7.70703125 37.98828125 C7.7109639 39.04461258 7.71489655 40.10094391 7.71894836 41.18928528 C7.66490819 43.88753983 7.5804085 46.36442432 7 49 C4.52432685 51.23932369 3.31544919 52 0 52 C0 34.84 0 17.68 0 0 Z " fill="#FF00FF" transform="translate(51,27)"/>
<path d="M0 0 C12.21 0 24.42 0 37 0 C37 0.33 37 0.66 37 1 C27.1 1 17.2 1 7 1 C8.97066828 15.14244298 11.22046139 27.76244927 23 37 C23 37.33 23 37.66 23 38 C19.96033278 38.53194176 17.79846292 38.4403644 15.06640625 36.93359375 C7.02610522 30.68002628 2.15249775 20.1251992 0.19140625 10.2578125 C-0.09747697 6.85016959 0 3.41986604 0 0 Z " fill="#FE00FE" transform="translate(406,90)"/>
<path d="M0 0 C2.5 0.125 2.5 0.125 3.5 1.125 C3.84053682 6.16309414 3.89967006 11.20332011 3.95996094 16.25170898 C3.98651818 17.9502388 4.02738963 19.64860887 4.08300781 21.34643555 C4.16239214 23.79802454 4.19530914 26.24653064 4.21875 28.69921875 C4.25174194 29.45257004 4.28473389 30.20592133 4.31872559 30.98210144 C4.30589995 34.38962774 4.17494955 36.34520155 1.89282227 38.98184204 C0.1535983 40.48054494 -1.5979014 41.84140722 -3.5 43.125 C-3.52464574 37.16186834 -3.542834 31.19876605 -3.55493164 25.2355957 C-3.55997278 23.20531702 -3.56680557 21.17504198 -3.57543945 19.14477539 C-3.58751467 16.23322653 -3.59323034 13.3217255 -3.59765625 10.41015625 C-3.60281754 9.4966188 -3.60797882 8.58308136 -3.61329651 7.64186096 C-3.61349168 5.46924573 -3.56211805 3.29672704 -3.5 1.125 C-2.5 0.125 -2.5 0.125 0 0 Z " fill="#FE00FE" transform="translate(236.5,26.875)"/>
<path d="M0 0 C0.29292609 4.7844594 -0.29682025 7.63790482 -2.3203125 11.92578125 C-4.83021744 19.58531875 -3.05695804 27.79431319 0 35 C-2.475 35.495 -2.475 35.495 -5 36 C-5.82022749 34.92250558 -6.63086169 33.83770492 -7.4375 32.75 C-7.88996094 32.14671875 -8.34242188 31.5434375 -8.80859375 30.921875 C-12.0669218 25.66581795 -11.65671767 18.9469433 -11 13 C-9.28737954 7.91009198 -6.3893279 0 0 0 Z " fill="#FE00FE" transform="translate(267,96)"/>
<path d="M0 0 C0.66 0 1.32 0 2 0 C2 12.87 2 25.74 2 39 C-0.55859692 37.72070154 -0.86148734 36.55728932 -2.0625 34 C-3.24468524 31.30092276 -3.24468524 31.30092276 -5 29 C-5.30734597 25.78028604 -5.27847292 22.54507284 -5.3125 19.3125 C-5.34150391 18.41337891 -5.37050781 17.51425781 -5.40039062 16.58789062 C-5.45572549 10.78624304 -4.75089921 7.66890132 -1 3 C-0.67 2.01 -0.34 1.02 0 0 Z " fill="#FF00FF" transform="translate(82,65)"/>
<path d="M0 0 C-0.4578042 3.57087275 -1.23457513 6.80958977 -2.4375 10.1875 C-4.2363989 15.35492528 -5.14325632 20.60755451 -6 26 C-8.31 26 -10.62 26 -13 26 C-12.67190172 16.59998429 -11.3036623 7.95549344 -6 0 C-3 -1 -3 -1 0 0 Z " fill="#FE00FE" transform="translate(419,61)"/>
<path d="M0 0 C-0.99 0.66 -1.98 1.32 -3 2 C-2.629969 7.11577498 -2.629969 7.11577498 0 11.375 C2.75398207 14.98960147 3.04406845 18.51383218 3 23 C2.67 23.66 2.34 24.32 2 25 C-0.06640625 25.6328125 -0.06640625 25.6328125 -2.5625 26.125 C-3.38878906 26.29257813 -4.21507812 26.46015625 -5.06640625 26.6328125 C-5.70449219 26.75398438 -6.34257812 26.87515625 -7 27 C-6.649375 26.360625 -6.29875 25.72125 -5.9375 25.0625 C-4.63814977 20.81795592 -4.81981222 17.27359922 -6 13 C-7.18401279 10.98657309 -7.18401279 10.98657309 -8.625 9.1875 C-11 6 -11 6 -10.82421875 3.9140625 C-10 2 -10 2 -7.1875 0.1875 C-4.05184556 -0.98068499 -3.0006419 -1.26950234 0 0 Z " fill="#FE00FE" transform="translate(266,63)"/>
<path d="M0 0 C5.25412337 0.41208811 8.28336057 1.17717087 12 5 C14.03969799 8.69088207 14.51184637 11.81992127 14 16 C11.71481238 20.31646551 9.54447291 23.0976625 5 25 C1.1875 25.1875 1.1875 25.1875 -2 25 C-2 24.34 -2 23.68 -2 23 C-1.05125 22.38125 -0.1025 21.7625 0.875 21.125 C3.98167762 19.01245922 4.74447515 18.35623227 6 15 C6.34338601 10.15737684 5.57851457 6.19422481 2.4375 2.4375 C1.633125 1.633125 0.82875 0.82875 0 0 Z " fill="#FE00FE" transform="translate(376,27)"/>
<path d="M0 0 C2.31 0 4.62 0 7 0 C7 10.23 7 20.46 7 31 C1.3692044 25.3692044 -0.27860024 19.29680622 -0.34716797 11.50561523 C-0.2965574 7.66527086 -0.17726253 3.83674908 0 0 Z " fill="#FF00FF" transform="translate(92,27)"/>
<path d="M0 0 C0.8971875 1.1446875 0.8971875 1.1446875 1.8125 2.3125 C3.78307704 4.90209672 3.78307704 4.90209672 5.625 6.375 C7 8 7 8 7.875 11.4375 C8.83515419 15.62868386 8.83515419 15.62868386 14 19 C1.46 19 -11.08 19 -24 19 C-24 18.67 -24 18.34 -24 18 C-14.43 17.67 -4.86 17.34 5 17 C3.35 15.35 1.7 13.7 0 12 C-0.48828125 8.88671875 -0.48828125 8.88671875 -0.3125 5.6875 C-0.24482422 4.08455078 -0.24482422 4.08455078 -0.17578125 2.44921875 C-0.11777344 1.64097656 -0.05976563 0.83273438 0 0 Z " fill="#FE00FE" transform="translate(382,122)"/>
<path d="M0 0 C2.3125 -0.1875 2.3125 -0.1875 5 0 C5.99 0.99 6.98 1.98 8 3 C-29.29 3 -66.58 3 -105 3 C-105 2.67 -105 2.34 -105 2 C-70.35 1.67 -35.7 1.34 0 1 C0 0.67 0 0.34 0 0 Z " fill="#FF00FF" transform="translate(124,138)"/>
<path d="M0 0 C11.72038093 0.86817636 19.85575428 5.837587 29 13 C27.68 14.32 26.36 15.64 25 17 C24.12601563 16.12988281 24.12601563 16.12988281 23.234375 15.2421875 C17.73889668 10.00592985 12.46998227 6.35066985 5.56640625 3.19140625 C3 2 3 2 0 0 Z " fill="#FE00FE" transform="translate(545,20)"/>
<path d="M0 0 C4.18291278 3.50786057 8.19020752 7.08135631 12 11 C12.66 11.66 13.32 12.32 14 13 C1.46 13 -11.08 13 -24 13 C-24 12.67 -24 12.34 -24 12 C-14.43 11.67 -4.86 11.34 5 11 C3.35 9.35 1.7 7.7 0 6 C-0.3125 2.6875 -0.3125 2.6875 0 0 Z " fill="#FF00FF" transform="translate(161,128)"/>
<path d="M0 0 C3.465 1.98 3.465 1.98 7 4 C7 5.98 7 7.96 7 10 C4.69 11.32 2.38 12.64 0 14 C0 9.38 0 4.76 0 0 Z " fill="#FE00FE" transform="translate(233,88)"/>
<path d="M0 0 C0 0.99 0 1.98 0 3 C-0.99 3.66 -1.98 4.32 -3 5 C-2.01 5.66 -1.02 6.32 0 7 C-6.83085645 9.44166784 -12.7515055 10.41640288 -20 10 C-17.17582223 8.11721482 -15.46159232 7.50037197 -12.25 6.6875 C-7.29047672 5.27672652 -4.00070815 3.2179609 0 0 Z " fill="#FE00FE" transform="translate(441,132)"/>
<path d="M0 0 C6.4652248 0.96260014 10.29385826 2.41452857 15 7 C13.625 9 13.625 9 12 11 C11.34 11 10.68 11 10 11 C9.4225 10.0925 8.845 9.185 8.25 8.25 C5.84629222 4.77797765 3.5609501 3.18512847 0 1 C0 0.67 0 0.34 0 0 Z " fill="#FF00FF" transform="translate(149,60)"/>
<path d="M0 0 C1.98 0 3.96 0 6 0 C6.6796875 1.765625 6.6796875 1.765625 7 4 C5.8203125 5.921875 5.8203125 5.921875 4.125 7.75 C3.29355469 8.67039062 3.29355469 8.67039062 2.4453125 9.609375 C1 11 1 11 0 11 C0 7.37 0 3.74 0 0 Z " fill="#FE00FE" transform="translate(382,61)"/>
<path d="M0 0 C0 0.33 0 0.66 0 1 C-3.22823979 1.50610903 -6.45772365 2.00379907 -9.6875 2.5 C-10.59951172 2.64308594 -11.51152344 2.78617188 -12.45117188 2.93359375 C-13.78051758 3.13662109 -13.78051758 3.13662109 -15.13671875 3.34375 C-16.35427856 3.53227539 -16.35427856 3.53227539 -17.59643555 3.72460938 C-20.08533405 4.00977723 -22.49706689 4.04674739 -25 4 C-25 3.34 -25 2.68 -25 2 C-22.14776949 1.4657727 -19.29409862 0.94736834 -16.4375 0.4375 C-15.63763672 0.28603516 -14.83777344 0.13457031 -14.01367188 -0.02148438 C-9.00789368 -0.90004953 -4.98797354 -1.01098524 0 0 Z " fill="#FE00FE" transform="translate(242,138)"/>
<path d="M0 0 C9.28145408 -0.22823248 17.86970027 0.09572892 27 2 C26.67 2.99 26.34 3.98 26 5 C25.22398437 4.69320312 24.44796875 4.38640625 23.6484375 4.0703125 C18.99150408 2.70414574 14.44628062 2.29454082 9.625 1.875 C8.23474609 1.74544922 8.23474609 1.74544922 6.81640625 1.61328125 C4.54477299 1.40251115 2.27275273 1.19826819 0 1 C0 0.67 0 0.34 0 0 Z " fill="#711571" transform="translate(263,59)"/>
<path d="M0 0 C-0.33 0.66 -0.66 1.32 -1 2 C-6.52429247 3.74451341 -11.22850374 4.20612487 -17 4 C-16.67 3.34 -16.34 2.68 -16 2 C-10.47570753 0.25548659 -5.77149626 -0.20612487 0 0 Z " fill="#FE00FE" transform="translate(274,138)"/>
<path d="M0 0 C4.66577113 0.45742854 8.35343718 0.9059467 12 4 C12.3125 6.6875 12.3125 6.6875 12 9 C11.67 8.34 11.34 7.68 11 7 C9.68747118 6.29325371 8.34721283 5.63815344 7 5 C4.6526519 3.6903208 2.32839725 2.3433061 0 1 C0 0.67 0 0.34 0 0 Z " fill="#FE00FE" transform="translate(431,60)"/>
<path d="M0 0 C0 0.66 0 1.32 0 2 C-5.48675196 3.86783046 -10.22192976 4.2358396 -16 4 C-13.39725921 1.39725921 -11.60706046 1.42126156 -8 0.875 C-6.9275 0.70742187 -5.855 0.53984375 -4.75 0.3671875 C-2 0 -2 0 0 0 Z " fill="#FF00FF" transform="translate(209,138)"/>
<path d="M0 0 C0.66 0.33 1.32 0.66 2 1 C-1.07999946 4.67230705 -3.2482602 5.56802365 -8 6 C-5.63404067 3.38499232 -3.13950774 1.61000397 0 0 Z " fill="#FE00FF" transform="translate(265,89)"/>
<path d="M0 0 C0.99 0.33 1.98 0.66 3 1 C2.01 1 1.02 1 0 1 C0 0.67 0 0.34 0 0 Z " fill="#222222" transform="translate(289,64)"/>
<path d="M0 0 C4 1 4 1 4 1 Z " fill="#FF00FF" transform="translate(266,61)"/>
<path d="M0 0 C4 1 4 1 4 1 Z " fill="#222222" transform="translate(259,60)"/>
<path d="" fill="#232323" transform="translate(0,0)"/>
<path d="" fill="#232323" transform="translate(0,0)"/>
<path d="" fill="#232323" transform="translate(0,0)"/>
<path d="" fill="#232323" transform="translate(0,0)"/>
</svg>
