<?xml version="1.0" standalone="no"?>
<!DOCTYPE svg PUBLIC "-//W3C//DTD SVG 20010904//EN"
 "http://www.w3.org/TR/2001/REC-SVG-20010904/DTD/svg10.dtd">
<svg version="1.0" xmlns="http://www.w3.org/2000/svg"
 width="216.000000pt" height="175.000000pt" viewBox="0 0 216.000000 175.000000"
 preserveAspectRatio="xMidYMid meet">
<g transform="translate(0.000000,175.000000) scale(0.100000,-0.100000)"
fill="#000000" stroke="none">
<path d="M470 1496 c7 -7 13 -7 20 0 6 6 3 10 -10 10 -13 0 -16 -4 -10 -10z"/>
<path d="M759 1493 c-13 -16 -12 -17 4 -4 9 7 17 15 17 17 0 8 -8 3 -21 -13z"/>
<path d="M1205 1500 c-7 -11 22 -26 32 -16 4 3 -1 6 -11 6 -9 0 -14 5 -11 10
3 6 4 10 1 10 -3 0 -8 -5 -11 -10z"/>
<path d="M1534 1499 c-3 -5 -2 -9 3 -8 4 1 10 0 13 -1 3 -1 13 -3 24 -5 14 -3
16 -1 7 8 -14 14 -39 18 -47 6z"/>
<path d="M850 1496 c0 -2 7 -7 16 -10 8 -3 12 -2 9 4 -6 10 -25 14 -25 6z"/>
<path d="M410 1481 c0 -6 4 -13 10 -16 6 -3 7 1 4 9 -7 18 -14 21 -14 7z"/>
<path d="M507 1466 c-117 -42 -217 -196 -217 -335 0 -188 164 -440 430 -663
101 -85 263 -198 283 -198 7 0 -7 11 -30 24 -45 26 -149 102 -218 158 -71 59
-253 245 -260 267 -3 12 -10 21 -14 21 -9 0 -79 103 -83 122 -2 7 -8 17 -15
23 -19 16 -44 85 -31 85 7 0 4 6 -6 13 -19 14 -24 37 -33 141 -4 49 -2 67 6
62 7 -5 8 -1 4 10 -5 13 -3 15 8 9 11 -6 11 -5 2 5 -19 20 19 110 46 110 14 0
14 2 1 10 -11 7 -11 10 -2 10 7 0 11 3 9 8 -7 10 19 32 29 24 4 -4 4 -1 0 5
-7 13 60 61 77 55 5 -1 5 3 1 9 -5 8 -2 10 8 6 9 -3 20 -1 26 5 6 6 39 14 74
18 l63 7 -60 1 c-33 1 -77 -5 -98 -12z"/>
<path d="M1209 1453 c-13 -16 -12 -17 4 -4 9 7 17 15 17 17 0 8 -8 3 -21 -13z"/>
<path d="M1290 1451 c-74 -24 -126 -52 -186 -99 l-50 -39 -30 24 c-39 32 -123
79 -154 87 -14 4 -3 -5 24 -18 53 -28 108 -67 146 -106 14 -14 24 -23 22 -21
-4 8 31 41 39 36 4 -3 11 0 15 6 4 8 3 9 -4 5 -7 -4 -12 -3 -12 2 0 6 11 13
25 16 14 4 23 10 20 15 -2 5 16 19 42 31 52 24 98 43 98 39 0 -1 11 3 24 11
14 7 59 16 100 20 l76 7 -70 1 c-42 1 -92 -6 -125 -17z"/>
<path d="M1650 1460 c-9 -6 -10 -10 -3 -10 6 0 15 5 18 10 8 12 4 12 -15 0z"/>
<path d="M577 1446 c-117 -42 -217 -196 -217 -335 0 -106 59 -248 157 -381
107 -144 353 -365 507 -455 l46 -27 58 32 c220 125 493 396 592 591 95 187 75
386 -51 504 -26 25 -54 45 -61 45 -10 0 -10 2 1 9 11 7 8 9 -10 10 -13 0 -56
3 -95 7 -125 11 -259 -44 -371 -151 l-62 -60 -69 66 c-38 36 -92 79 -120 95
-28 15 -48 32 -45 38 3 5 1 6 -5 2 -6 -4 -35 0 -64 9 -63 18 -140 19 -191 1z
m108 -11 c17 -1 50 -7 75 -15 25 -7 49 -13 54 -11 5 1 6 -6 2 -15 -5 -14 -4
-15 9 -4 11 9 15 9 15 1 0 -7 5 -9 10 -6 6 3 10 1 10 -4 0 -6 3 -10 8 -10 20
3 32 -2 26 -12 -4 -7 -2 -10 5 -8 18 6 155 -127 146 -142 -5 -7 -4 -10 3 -5 5
3 12 3 15 -1 2 -5 2 -2 0 6 -3 11 -1 12 12 1 8 -7 15 -9 15 -5 0 4 8 1 18 -6
15 -13 16 -12 4 3 -9 11 -10 18 -2 23 5 3 10 11 10 17 0 5 -9 0 -21 -13 l-20
-24 17 28 c9 15 20 27 24 27 4 0 17 9 30 20 13 11 20 20 15 20 -4 0 15 15 41
33 31 21 53 30 60 25 8 -6 11 -3 10 9 0 10 5 17 12 15 6 -1 12 3 12 9 0 5 5 7
10 4 6 -4 18 -1 27 7 10 8 14 8 10 1 -5 -8 3 -7 22 3 16 8 47 17 70 20 43 6
136 -11 159 -29 6 -5 12 -6 12 -3 0 4 7 1 15 -8 18 -17 20 -30 3 -20 -7 4 -8
3 -4 -5 4 -6 12 -9 17 -6 13 9 69 -33 69 -51 0 -8 -4 -13 -8 -10 -4 2 -8 -7
-9 -22 0 -15 1 -19 4 -9 5 18 18 23 27 8 4 -5 0 -12 -6 -14 -8 -4 -7 -6 3 -6
9 -1 19 -8 22 -15 4 -11 1 -13 -10 -9 -11 4 -14 2 -9 -5 4 -7 15 -12 24 -13 9
0 13 -2 7 -5 -6 -2 -9 -41 -7 -96 4 -99 -9 -163 -37 -186 -11 -9 -12 -11 -1
-6 13 7 13 5 1 -9 -11 -14 -11 -17 0 -17 7 0 3 -7 -9 -16 -14 -9 -21 -22 -18
-31 3 -8 2 -11 -3 -8 -5 3 -12 -4 -16 -15 -10 -32 -35 -52 -49 -41 -9 8 -13 7
-13 -3 0 -9 8 -13 21 -10 19 3 19 2 -4 -16 -14 -11 -21 -20 -16 -20 5 0 -3
-11 -18 -25 -14 -13 -26 -29 -26 -35 0 -6 -4 -9 -9 -5 -5 3 -12 -4 -16 -15 -3
-11 -11 -20 -16 -20 -6 0 -8 -4 -5 -9 3 -4 -6 -13 -19 -19 -14 -7 -25 -17 -25
-23 0 -8 -5 -7 -17 2 -15 13 -15 12 -4 -10 8 -15 9 -21 2 -17 -6 4 -11 3 -11
-2 0 -5 -12 -8 -27 -6 -35 4 -63 -10 -39 -19 10 -4 14 -3 11 3 -3 5 4 8 15 7
11 -1 20 -4 20 -7 -1 -13 -17 -28 -35 -32 -11 -2 -19 -10 -17 -17 1 -7 -2 -10
-7 -7 -5 3 -11 -1 -15 -9 -3 -8 -13 -15 -21 -15 -9 0 -14 -4 -11 -9 6 -9 -11
-28 -29 -31 -18 -4 -45 -27 -40 -33 3 -4 2 -5 -1 -2 -4 2 -23 -9 -42 -25 -20
-16 -38 -27 -41 -24 -3 3 1 9 9 14 8 5 12 12 8 15 -3 3 -16 -8 -28 -25 -16
-22 -28 -30 -41 -27 -11 3 -17 1 -13 -4 3 -5 -1 -9 -8 -10 -7 0 -21 -2 -31 -4
-10 -2 -21 3 -24 11 -3 8 -9 11 -14 8 -5 -3 -9 -1 -9 5 0 5 -9 13 -20 16 -11
4 -27 18 -36 33 -8 15 -13 19 -10 10 3 -12 1 -15 -9 -12 -8 3 -11 12 -8 20 3
8 0 14 -6 14 -6 0 -11 -5 -11 -12 0 -7 -11 2 -23 20 -13 17 -27 29 -30 25 -4
-3 -7 -1 -7 6 0 7 -5 9 -10 6 -6 -3 -10 2 -10 11 0 10 -3 14 -7 11 -9 -9 -34
13 -27 24 3 5 2 9 -3 8 -4 -1 -15 -1 -23 0 -12 1 -11 5 4 16 11 8 14 15 7 15
-7 0 -9 5 -5 12 4 7 3 8 -5 4 -6 -4 -9 -12 -6 -17 4 -5 1 -9 -4 -9 -10 0 -15
14 -12 33 1 5 -3 6 -8 2 -6 -3 -7 -13 -4 -23 3 -9 -4 -4 -16 11 -20 24 -21 30
-10 45 11 13 9 13 -9 -2 -27 -24 -30 -6 -2 19 24 22 16 39 -10 23 -14 -9 -16
-14 -7 -20 8 -5 7 -8 -5 -8 -10 0 -18 5 -18 11 0 5 -4 8 -8 5 -4 -2 -14 4 -21
16 -7 11 -8 17 -3 14 11 -7 10 19 -1 30 -4 4 -2 13 4 20 7 8 6 14 -2 20 -7 4
-9 3 -5 -4 3 -6 2 -14 -4 -17 -8 -5 -7 -11 1 -21 6 -8 7 -14 2 -14 -13 0 -42
37 -35 46 4 4 -1 4 -10 1 -17 -6 -24 8 -19 36 1 5 -2 6 -6 4 -14 -8 -33 18
-33 46 0 9 -2 9 -8 -1 -6 -8 -13 -1 -22 23 -8 19 -18 35 -23 35 -5 0 -4 6 2
14 9 10 7 17 -6 27 -16 13 -17 12 -4 -3 7 -10 11 -18 7 -18 -3 0 -13 11 -21
24 -14 20 -14 29 -4 48 11 20 11 22 -3 10 -14 -11 -18 -8 -29 25 -8 21 -14 45
-15 53 -1 8 -5 30 -9 49 -4 19 -3 31 2 28 5 -3 9 3 9 13 0 10 -4 16 -8 14 -4
-3 -8 2 -8 10 0 9 5 16 11 16 5 0 7 5 4 10 -8 14 23 120 35 120 6 0 10 7 10
15 0 14 12 20 33 16 5 -1 6 3 2 9 -3 6 -12 7 -18 3 -7 -3 -4 3 7 15 10 12 24
19 30 15 6 -3 8 -3 4 1 -7 9 22 46 35 46 5 0 4 -6 -2 -14 -9 -10 -8 -16 3 -26
13 -10 15 -9 12 7 -7 34 42 72 83 64 8 -1 10 2 5 10 -5 8 -3 9 7 3 8 -5 28 -9
44 -9z"/>
<path d="M1286 1369 c2 -4 14 -5 26 -1 16 4 19 2 13 -8 -5 -9 -4 -11 4 -6 18
11 3 26 -24 24 -13 -1 -22 -5 -19 -9z"/>
<path d="M1177 1291 c-4 -17 -3 -21 5 -13 5 5 8 16 6 23 -3 8 -7 3 -11 -10z"/>
<path d="M456 1292 c-3 -5 1 -9 9 -9 8 0 12 4 9 9 -3 4 -7 8 -9 8 -2 0 -6 -4
-9 -8z"/>
<path d="M1689 933 c-13 -16 -12 -17 4 -4 16 13 21 21 13 21 -2 0 -10 -8 -17
-17z"/>
<path d="M460 910 c6 -11 13 -20 16 -20 2 0 0 9 -6 20 -6 11 -13 20 -16 20 -2
0 0 -9 6 -20z"/>
<path d="M1443 607 c-3 -6 -1 -7 5 -3 7 4 12 2 12 -4 0 -6 5 -8 10 -5 6 3 10
10 10 14 0 11 -30 9 -37 -2z"/>
<path d="M855 461 c-6 -11 13 -26 22 -17 4 3 1 6 -6 6 -7 0 -9 5 -6 10 3 6 4
10 1 10 -3 0 -7 -4 -11 -9z"/>
<path d="M1318 463 c7 -3 16 -2 19 1 4 3 -2 6 -13 5 -11 0 -14 -3 -6 -6z"/>
<path d="M1286 428 c3 -5 10 -6 15 -3 13 9 11 12 -6 12 -8 0 -12 -4 -9 -9z"/>
<path d="M1125 360 c4 -6 11 -8 16 -5 14 9 11 15 -7 15 -8 0 -12 -5 -9 -10z"/>
<path d="M1046 302 c-3 -5 1 -9 9 -9 8 0 12 4 9 9 -3 4 -7 8 -9 8 -2 0 -6 -4
-9 -8z"/>
<path d="M947 1419 c7 -7 15 -10 18 -7 3 3 -2 9 -12 12 -14 6 -15 5 -6 -5z"/>
<path d="M998 1416 c4 -6 7 -14 7 -18 0 -19 11 -14 11 6 0 12 -6 23 -13 23 -6
0 -9 -5 -5 -11z"/>
<path d="M1659 1409 c44 -26 101 -80 101 -94 0 -6 9 -18 20 -28 11 -9 17 -23
14 -32 -4 -8 -1 -15 6 -15 7 0 10 -8 7 -20 -3 -10 2 -25 10 -31 11 -10 14 -34
11 -112 -1 -54 -7 -101 -12 -104 -5 -4 -6 0 -1 7 5 9 4 11 -4 6 -6 -4 -9 -18
-7 -32 3 -13 -2 -30 -10 -39 -8 -8 -15 -18 -14 -22 0 -20 -12 -43 -21 -38 -5
3 -6 -1 -3 -9 3 -8 -5 -25 -18 -38 -13 -13 -23 -27 -23 -33 -1 -5 -6 -9 -13
-7 -7 1 -11 -1 -10 -5 5 -18 -14 -53 -25 -47 -7 4 -9 4 -5 -1 11 -11 -10 -45
-28 -45 -8 0 -13 -4 -9 -9 8 -13 -204 -221 -225 -221 -10 0 -20 -9 -23 -21 -3
-12 -10 -18 -15 -15 -6 3 -12 -1 -16 -9 -3 -8 -13 -15 -22 -15 -10 0 -15 -3
-11 -6 3 -4 -22 -25 -57 -48 -91 -60 -103 -66 -128 -66 -21 -1 -21 -2 -5 -11
59 -34 447 284 586 481 108 153 145 255 139 383 -6 131 -72 247 -170 298 -50
25 -62 24 -19 -2z"/>
<path d="M1726 1422 c-3 -4 4 -9 15 -9 23 -2 25 3 4 10 -8 4 -16 3 -19 -1z"/>
<path d="M1825 1331 c-3 -5 -2 -12 3 -15 5 -3 9 1 9 9 0 17 -3 19 -12 6z"/>
<path d="M1810 1306 c0 -2 8 -10 18 -17 15 -13 16 -12 3 4 -13 16 -21 21 -21
13z"/>
<path d="M265 979 c-4 -6 -5 -12 -2 -15 2 -3 7 2 10 11 7 17 1 20 -8 4z"/>
<path d="M1806 812 c-3 -5 1 -9 9 -9 8 0 12 4 9 9 -3 4 -7 8 -9 8 -2 0 -6 -4
-9 -8z"/>
<path d="M1725 700 c-3 -6 1 -7 9 -4 18 7 21 14 7 14 -6 0 -13 -4 -16 -10z"/>
<path d="M1735 669 c-4 -6 -5 -12 -2 -15 2 -3 7 2 10 11 7 17 1 20 -8 4z"/>
<path d="M1688 653 c6 -2 10 -9 7 -14 -4 -5 1 -6 10 -2 13 5 14 7 3 14 -7 5
-17 8 -23 8 -5 0 -4 -3 3 -6z"/>
<path d="M1655 600 c-4 -6 -10 -8 -14 -6 -4 3 -8 -1 -8 -8 0 -7 6 -13 14 -13
7 0 11 3 8 5 -3 3 0 11 6 19 6 7 9 13 6 13 -3 0 -9 -5 -12 -10z"/>
<path d="M1563 515 c0 -8 4 -12 9 -9 5 3 6 10 3 15 -9 13 -12 11 -12 -6z"/>
<path d="M1580 491 c0 -6 4 -13 10 -16 6 -3 7 1 4 9 -7 18 -14 21 -14 7z"/>
<path d="M1490 416 c0 -2 8 -10 18 -17 15 -13 16 -12 3 4 -13 16 -21 21 -21
13z"/>
<path d="M1410 385 c-11 -13 -10 -14 4 -9 9 3 16 10 16 15 0 13 -6 11 -20 -6z"/>
<path d="M1415 349 c-4 -6 -5 -12 -2 -15 2 -3 7 2 10 11 7 17 1 20 -8 4z"/>
<path d="M1346 331 c-4 -5 4 -7 16 -3 14 3 19 1 14 -6 -5 -8 -1 -10 9 -5 13 5
14 7 3 14 -17 11 -35 11 -42 0z"/>
<path d="M883 268 c1 -15 6 -23 11 -18 4 4 4 16 -2 26 -9 16 -10 14 -9 -8z"/>
<path d="M936 275 c4 -8 2 -15 -4 -15 -6 0 -12 6 -15 13 -3 6 -4 2 -4 -10 1
-18 4 -20 19 -12 10 6 24 7 31 3 6 -4 3 2 -7 14 -22 26 -28 28 -20 7z"/>
<path d="M1253 271 c-9 -14 -7 -17 11 -18 11 -1 15 1 7 4 -10 4 -10 7 -1 13 7
4 8 10 3 13 -5 3 -14 -2 -20 -12z"/>
</g>
</svg>
